<svg xmlns="http://www.w3.org/2000/svg" viewBox="0 0 1600 720" preserveAspectRatio="none">
  <defs>
    <linearGradient id="sky" x1="0" y1="0" x2="0" y2="1">
      <stop offset="0" stop-color="#0a1718"/>
      <stop offset="0.48" stop-color="#10221f"/>
      <stop offset="1" stop-color="#07100d"/>
    </linearGradient>
    <linearGradient id="granite" x1="0" y1="0" x2="1" y2="1">
      <stop offset="0" stop-color="#5c6962" stop-opacity="0.52"/>
      <stop offset="0.55" stop-color="#2e3e38" stop-opacity="0.58"/>
      <stop offset="1" stop-color="#111c18" stop-opacity="0.78"/>
    </linearGradient>
    <linearGradient id="fir" x1="0" y1="0" x2="0" y2="1">
      <stop offset="0" stop-color="#183327"/>
      <stop offset="1" stop-color="#07100d"/>
    </linearGradient>
  </defs>

  <rect width="1600" height="720" fill="url(#sky)"/>
  <path d="M0 415 L105 330 L180 374 L276 245 L392 395 L484 305 L548 344 L674 210 L790 386 L862 328 L950 365 L1072 232 L1232 410 L1318 345 L1402 386 L1510 290 L1600 404 L1600 720 L0 720 Z" fill="url(#granite)"/>
  <path d="M0 473 L150 438 L260 462 L382 418 L500 456 L650 392 L760 455 L890 430 L1030 464 L1180 418 L1320 458 L1455 426 L1600 456 L1600 720 L0 720 Z" fill="#0b1713" opacity="0.82"/>

  <g fill="url(#fir)" opacity="0.98">
    <path d="M18 720 V486 l-28 40 h21 l-34 48 h29 l-39 58 h35 l-44 65 Z"/>
    <path d="M78 720 V458 l-34 51 h25 l-41 56 h34 l-48 66 h42 l-52 73 Z"/>
    <path d="M142 720 V492 l-26 39 h20 l-32 47 h27 l-38 55 h32 l-43 64 Z"/>
    <path d="M210 720 V440 l-39 58 h29 l-47 65 h39 l-54 76 h47 l-59 82 Z"/>
    <path d="M288 720 V480 l-29 44 h22 l-36 52 h30 l-42 61 h36 l-48 71 Z"/>
    <path d="M360 720 V428 l-42 64 h32 l-51 72 h42 l-59 85 h51 l-64 91 Z"/>
    <path d="M444 720 V470 l-31 48 h24 l-39 56 h32 l-45 66 h39 l-51 77 Z"/>
    <path d="M520 720 V450 l-37 55 h28 l-45 64 h37 l-52 75 h45 l-57 84 Z"/>
    <path d="M600 720 V492 l-27 40 h21 l-34 49 h28 l-40 58 h34 l-44 68 Z"/>
    <path d="M676 720 V418 l-44 67 h34 l-53 75 h44 l-61 88 h53 l-68 96 Z"/>
    <path d="M766 720 V462 l-35 52 h27 l-43 60 h35 l-50 73 h43 l-55 82 Z"/>
    <path d="M844 720 V482 l-30 45 h23 l-37 54 h31 l-43 63 h37 l-49 74 Z"/>
    <path d="M920 720 V438 l-40 60 h30 l-49 69 h40 l-56 80 h48 l-61 88 Z"/>
    <path d="M1004 720 V474 l-32 48 h24 l-39 57 h33 l-46 67 h39 l-51 78 Z"/>
    <path d="M1080 720 V450 l-36 54 h27 l-44 63 h36 l-51 74 h44 l-56 84 Z"/>
    <path d="M1160 720 V430 l-42 63 h32 l-51 72 h42 l-59 85 h50 l-64 91 Z"/>
    <path d="M1246 720 V486 l-28 41 h21 l-35 50 h30 l-40 58 h34 l-46 68 Z"/>
    <path d="M1320 720 V454 l-37 56 h28 l-45 64 h38 l-52 76 h45 l-57 84 Z"/>
    <path d="M1404 720 V420 l-44 66 h33 l-53 76 h44 l-62 88 h53 l-67 96 Z"/>
    <path d="M1496 720 V472 l-32 49 h25 l-40 57 h33 l-46 67 h40 l-52 78 Z"/>
    <path d="M1572 720 V448 l-38 57 h29 l-46 65 h38 l-53 77 h46 l-58 86 Z"/>
  </g>
</svg>
